<!-- created by svgstack.com | Attribution is required. --><svg width="108" height="108" viewBox="0 0 108 108" fill="none" xmlns="http://www.w3.org/2000/svg"><path d="M51.1704 14.9426C58.9699 14.4403 66.9016 16.0002 73.908 19.4901C84.2457 24.5664 92.4682 33.7408 96.3548 44.5544C98.0733 49.3399 98.9987 54.3897 98.9987 59.466V78.3171C98.9987 79.0839 99.0251 79.877 98.8401 80.6173C98.417 82.5209 97.0686 84.1866 95.2708 85.0062C94.0281 85.5879 92.6004 85.6672 91.2785 85.4557C88.3966 84.9269 86.1757 82.2301 86.1493 79.3218C86.1229 73.4788 86.1493 67.6357 86.1493 61.7662C86.2022 60.1006 86.2022 58.3292 85.3032 56.875C83.8491 54.1782 80.3063 52.8827 77.4773 54.046C75.0713 54.8921 73.3263 57.3245 73.2999 59.8891C73.2735 65.8379 73.2999 71.7602 73.2999 77.6826C73.2999 78.793 73.3528 79.9299 73.0355 80.9875C72.4274 83.0762 70.6824 84.7683 68.5937 85.3499C65.8441 86.1167 62.6978 84.9005 61.2965 82.3623C60.3447 80.8288 60.4241 78.9781 60.4505 77.286C60.4241 71.3901 60.4769 65.4942 60.4241 59.5982C60.3712 56.6106 57.9123 53.9138 54.9247 53.5172C52.9947 53.2264 50.9589 53.861 49.5576 55.2358C48.2885 56.4255 47.5746 58.1441 47.5746 59.8891V77.0745C47.5482 78.5286 47.7333 80.0092 47.1781 81.3576C46.332 83.8165 43.8467 85.6143 41.2293 85.535C38.5589 85.6936 35.9414 83.8429 35.0954 81.3312C34.6195 80.0885 34.7252 78.7666 34.7252 77.4446C34.7252 71.5223 34.7517 65.5999 34.7252 59.6511C34.6988 56.7164 32.425 54.046 29.5432 53.5172C26.9521 52.962 24.0703 54.284 22.7483 56.6371C22.1931 57.6153 21.9023 58.7522 21.9023 59.8626V79.1103C21.9287 80.9875 21.0562 82.8382 19.6285 84.028C17.4605 85.9316 13.9441 86.0373 11.6439 84.2924C9.97825 83.1555 9 81.2254 9 79.2161V59.7304C9.02644 52.3539 10.8772 45.0039 14.3936 38.5263C17.2754 33.2385 21.2149 28.5059 25.9475 24.7515C33.086 18.9613 42.0224 15.4978 51.1704 14.9426Z" fill="#5442D1"/></svg> 